<?xml version="1.0" encoding="UTF-8" standalone="no"?>
<!-- Created with Inkscape (http://www.inkscape.org/) -->

<svg
   xmlns:dc="http://purl.org/dc/elements/1.1/"
   xmlns:cc="http://creativecommons.org/ns#"
   xmlns:rdf="http://www.w3.org/1999/02/22-rdf-syntax-ns#"
   xmlns:svg="http://www.w3.org/2000/svg"
   xmlns="http://www.w3.org/2000/svg"
   xmlns:xlink="http://www.w3.org/1999/xlink"
   xmlns:sodipodi="http://sodipodi.sourceforge.net/DTD/sodipodi-0.dtd"
   xmlns:inkscape="http://www.inkscape.org/namespaces/inkscape"
   width="512"
   height="512"
   viewBox="0 0 512.00001 512"
   id="svg4139"
   version="1.1"
   inkscape:version="0.91 r13725"
   sodipodi:docname="unicorn-icon.svg"
   inkscape:export-filename="/home/tong/g7371.png"
   inkscape:export-xdpi="90"
   inkscape:export-ydpi="90">
  <defs
     id="defs4141">
    <linearGradient
       inkscape:collect="always"
       id="linearGradient7286">
      <stop
         style="stop-color:#000000;stop-opacity:1;"
         offset="0"
         id="stop7288" />
      <stop
         style="stop-color:#000000;stop-opacity:0;"
         offset="1"
         id="stop7290" />
    </linearGradient>
    <marker
       inkscape:stockid="Tail"
       orient="auto"
       refY="0"
       refX="0"
       id="Tail"
       style="overflow:visible"
       inkscape:isstock="true">
      <g
         id="g4809"
         transform="scale(-1.2,-1.2)"
         style="fill:#000000;fill-opacity:1;stroke:#000000;stroke-opacity:1">
        <path
           id="path4811"
           d="M -3.8048674,-3.9585227 0.54352094,0"
           style="fill:#000000;fill-opacity:1;fill-rule:evenodd;stroke:#000000;stroke-width:0.80000001;stroke-linecap:round;stroke-opacity:1"
           inkscape:connector-curvature="0" />
        <path
           id="path4813"
           d="M -1.2866832,-3.9585227 3.0617053,0"
           style="fill:#000000;fill-opacity:1;fill-rule:evenodd;stroke:#000000;stroke-width:0.80000001;stroke-linecap:round;stroke-opacity:1"
           inkscape:connector-curvature="0" />
        <path
           id="path4815"
           d="M 1.3053582,-3.9585227 5.6537466,0"
           style="fill:#000000;fill-opacity:1;fill-rule:evenodd;stroke:#000000;stroke-width:0.80000001;stroke-linecap:round;stroke-opacity:1"
           inkscape:connector-curvature="0" />
        <path
           id="path4817"
           d="M -3.8048674,4.1775838 0.54352094,0.21974226"
           style="fill:#000000;fill-opacity:1;fill-rule:evenodd;stroke:#000000;stroke-width:0.80000001;stroke-linecap:round;stroke-opacity:1"
           inkscape:connector-curvature="0" />
        <path
           id="path4819"
           d="M -1.2866832,4.1775838 3.0617053,0.21974226"
           style="fill:#000000;fill-opacity:1;fill-rule:evenodd;stroke:#000000;stroke-width:0.80000001;stroke-linecap:round;stroke-opacity:1"
           inkscape:connector-curvature="0" />
        <path
           id="path4821"
           d="M 1.3053582,4.1775838 5.6537466,0.21974226"
           style="fill:#000000;fill-opacity:1;fill-rule:evenodd;stroke:#000000;stroke-width:0.80000001;stroke-linecap:round;stroke-opacity:1"
           inkscape:connector-curvature="0" />
      </g>
    </marker>
    <marker
       inkscape:stockid="Arrow2Lend"
       orient="auto"
       refY="0"
       refX="0"
       id="marker5435"
       style="overflow:visible"
       inkscape:isstock="true">
      <path
         id="path5437"
         style="fill:#000000;fill-opacity:1;fill-rule:evenodd;stroke:#000000;stroke-width:0.625;stroke-linejoin:round;stroke-opacity:1"
         d="M 8.7185878,4.0337352 -2.2072895,0.01601326 8.7185884,-4.0017078 c -1.7454984,2.3720609 -1.7354408,5.6174519 -6e-7,8.035443 z"
         transform="matrix(-1.1,0,0,-1.1,-1.1,0)"
         inkscape:connector-curvature="0" />
    </marker>
    <marker
       inkscape:stockid="Arrow1Mstart"
       orient="auto"
       refY="0"
       refX="0"
       id="Arrow1Mstart"
       style="overflow:visible"
       inkscape:isstock="true">
      <path
         id="path4779"
         d="M 0,0 5,-5 -12.5,0 5,5 0,0 Z"
         style="fill:#000000;fill-opacity:1;fill-rule:evenodd;stroke:#000000;stroke-width:1pt;stroke-opacity:1"
         transform="matrix(0.4,0,0,0.4,4,0)"
         inkscape:connector-curvature="0" />
    </marker>
    <marker
       inkscape:stockid="CurveOut"
       orient="auto"
       refY="0"
       refX="0"
       id="CurveOut"
       style="overflow:visible"
       inkscape:isstock="true">
      <path
         id="path4960"
         d="m -5.4129913,-5.0456926 c 2.76,0 4.99999999,2.24 4.99999999,5.00000002 0,2.75999998 -2.23999999,4.99999998 -4.99999999,4.99999998"
         style="fill:none;fill-rule:evenodd;stroke:#000000;stroke-width:1pt;stroke-opacity:1"
         transform="scale(0.6,0.6)"
         inkscape:connector-curvature="0" />
    </marker>
    <marker
       inkscape:stockid="Arrow2Lend"
       orient="auto"
       refY="0"
       refX="0"
       id="Arrow2Lend"
       style="overflow:visible"
       inkscape:isstock="true">
      <path
         id="path4794"
         style="fill:#000000;fill-opacity:1;fill-rule:evenodd;stroke:#000000;stroke-width:0.625;stroke-linejoin:round;stroke-opacity:1"
         d="M 8.7185878,4.0337352 -2.2072895,0.01601326 8.7185884,-4.0017078 c -1.7454984,2.3720609 -1.7354408,5.6174519 -6e-7,8.035443 z"
         transform="matrix(-1.1,0,0,-1.1,-1.1,0)"
         inkscape:connector-curvature="0" />
    </marker>
    <marker
       inkscape:stockid="Arrow1Lend"
       orient="auto"
       refY="0"
       refX="0"
       id="Arrow1Lend"
       style="overflow:visible"
       inkscape:isstock="true">
      <path
         id="path4776"
         d="M 0,0 5,-5 -12.5,0 5,5 0,0 Z"
         style="fill:#000000;fill-opacity:1;fill-rule:evenodd;stroke:#000000;stroke-width:1pt;stroke-opacity:1"
         transform="matrix(-0.8,0,0,-0.8,-10,0)"
         inkscape:connector-curvature="0" />
    </marker>
    <marker
       inkscape:stockid="Arrow1Sstart"
       orient="auto"
       refY="0"
       refX="0"
       id="Arrow1Sstart"
       style="overflow:visible"
       inkscape:isstock="true">
      <path
         id="path4785"
         d="M 0,0 5,-5 -12.5,0 5,5 0,0 Z"
         style="fill:#000000;fill-opacity:1;fill-rule:evenodd;stroke:#000000;stroke-width:1pt;stroke-opacity:1"
         transform="matrix(0.2,0,0,0.2,1.2,0)"
         inkscape:connector-curvature="0" />
    </marker>
    <marker
       inkscape:stockid="Arrow1Lstart"
       orient="auto"
       refY="0"
       refX="0"
       id="marker5111"
       style="overflow:visible"
       inkscape:isstock="true">
      <path
         id="path5113"
         d="M 0,0 5,-5 -12.5,0 5,5 0,0 Z"
         style="fill:#000000;fill-opacity:1;fill-rule:evenodd;stroke:#000000;stroke-width:1pt;stroke-opacity:1"
         transform="matrix(0.8,0,0,0.8,10,0)"
         inkscape:connector-curvature="0" />
    </marker>
    <marker
       inkscape:stockid="Arrow1Lstart"
       orient="auto"
       refY="0"
       refX="0"
       id="Arrow1Lstart"
       style="overflow:visible"
       inkscape:isstock="true">
      <path
         id="path4773"
         d="M 0,0 5,-5 -12.5,0 5,5 0,0 Z"
         style="fill:#000000;fill-opacity:1;fill-rule:evenodd;stroke:#000000;stroke-width:1pt;stroke-opacity:1"
         transform="matrix(0.8,0,0,0.8,10,0)"
         inkscape:connector-curvature="0" />
    </marker>
    <linearGradient
       inkscape:collect="always"
       xlink:href="#linearGradient7286"
       id="linearGradient7292"
       x1="199.68385"
       y1="123.56879"
       x2="64.130569"
       y2="124.20528"
       gradientUnits="userSpaceOnUse"
       gradientTransform="matrix(1.3052528,0,0,1.3052528,81.236126,588.17846)" />
    <linearGradient
       inkscape:collect="always"
       xlink:href="#linearGradient7286"
       id="linearGradient7308"
       gradientUnits="userSpaceOnUse"
       x1="199.68385"
       y1="123.56879"
       x2="64.130569"
       y2="124.20528"
       gradientTransform="matrix(-1.3052528,0,0,-1.3052528,426.71406,1007.318)" />
  </defs>
  <sodipodi:namedview
     id="base"
     pagecolor="#ffffff"
     bordercolor="#666666"
     borderopacity="1.0"
     inkscape:pageopacity="0.0"
     inkscape:pageshadow="2"
     inkscape:zoom="1.9749271"
     inkscape:cx="101.46532"
     inkscape:cy="293.66968"
     inkscape:document-units="px"
     inkscape:current-layer="g7321"
     showgrid="false"
     inkscape:object-paths="true"
     units="px"
     inkscape:window-width="3200"
     inkscape:window-height="1714"
     inkscape:window-x="0"
     inkscape:window-y="0"
     inkscape:window-maximized="1" />
  <metadata
     id="metadata4144">
    <rdf:RDF>
      <cc:Work
         rdf:about="">
        <dc:format>image/svg+xml</dc:format>
        <dc:type
           rdf:resource="http://purl.org/dc/dcmitype/StillImage" />
        <dc:title></dc:title>
      </cc:Work>
    </rdf:RDF>
  </metadata>
  <g
     inkscape:label="Layer 1"
     inkscape:groupmode="layer"
     id="layer1"
     style="display:none"
     transform="translate(0,-540.36219)" />
  <g
     inkscape:groupmode="layer"
     id="layer2"
     inkscape:label="Layer 2"
     style="display:none"
     transform="translate(0,-540.36219)" />
  <g
     inkscape:groupmode="layer"
     id="layer3"
     inkscape:label="Layer 3"
     style="display:inline"
     transform="translate(0,-540.36219)">
    <g
       style="display:inline"
       id="g7321"
       transform="matrix(0.41507073,0.11121787,-0.11121787,0.41507073,134.38741,593.37909)">
      <g
         id="g7442"
         transform="translate(0.03608439,0.10103934)">
        <g
           style="display:inline"
           id="g4703"
           transform="matrix(19.943725,-1.0452064,1.0452063,19.943723,-341.44994,-274.49129)">
          <g
             id="g7315">
            <g
               id="g7310">
              <path
                 id="path4705"
                 d="m 34.706543,65.196289 c -0.391602,0 -0.782227,-0.03516 -1.162109,-0.105469 C 31.100098,64.644531 29.278809,62.849609 28.181152,61.422852 25.601074,58.069336 24.493164,53.825195 23.815918,50.500977 21.502441,39.152344 21.918457,27.253906 25.018555,16.09375 25.876953,13.004883 27.09668,9.5146484 29.63916,7.0439453 c 1.744141,-1.6962891 4.146485,-2.7089844 6.425293,-2.7089844 1.297364,0 2.482422,0.3193359 3.522461,0.9472656 2.158203,1.3017578 3.301758,3.6601563 4.136231,5.7949215 4.202148,10.75293 4.845214,23.683594 1.965332,39.53125 -0.678711,3.736328 -1.629395,7.989258 -4.333008,11.169922 -1.819825,2.140625 -4.305176,3.417969 -6.648926,3.417969 z m 1.35791,-59.3613281 c -1.897461,0 -3.908691,0.8544922 -5.379883,2.2851563 -2.285644,2.2207028 -3.416504,5.4804688 -4.220703,8.3759768 -3.037109,10.932617 -3.444336,22.58789 -1.178222,33.706054 0.645019,3.16504 1.691894,7.19629 4.084472,10.306641 0.9375,1.217773 2.46875,2.746094 4.443848,3.107422 2.137207,0.386719 4.617187,-0.714844 6.398926,-2.80957 2.462402,-2.896485 3.355957,-6.920899 4,-10.465821 C 47.041016,34.774414 46.423828,22.109375 42.325684,11.624024 41.583496,9.7236329 40.584961,7.6367188 38.811523,6.5664063 38.008789,6.0810547 37.084473,5.8349609 36.064453,5.8349609 Z"
                 inkscape:connector-curvature="0"
                 style="opacity:0.9;fill:#000000" />
              <path
                 id="path4707"
                 d="m 15.890137,54.345703 c -0.363282,0 -0.726074,-0.01465 -1.088867,-0.04687 C 12.703125,54.112305 10.862793,53.316406 9.6196289,52.055664 7.6943359,50.102539 7.0791016,46.84668 8.0522461,43.760742 8.9199219,41.011719 10.75,38.787109 12.599121,36.792969 22.59375,26.011719 36.07666,18.702148 50.563965,16.208008 c 1.164551,-0.200195 2.541504,-0.405274 3.926758,-0.405274 0.939453,0 1.787597,0.0918 2.593261,0.279297 2.499512,0.583008 4.489746,2.220703 5.194336,4.274414 0.604981,1.762696 0.348145,3.817383 -0.783691,6.282227 -1.583985,3.448242 -4.15625,6.736328 -8.095703,10.347656 -9.316407,8.539063 -20.791504,14.361328 -33.184571,16.835938 -1.358398,0.272461 -2.822753,0.523437 -4.324218,0.523437 z M 54.490723,17.302734 c -1.272461,0 -2.570313,0.194336 -3.671875,0.383789 -14.165039,2.4375 -27.348145,9.585938 -37.120118,20.125977 -1.729492,1.866211 -3.4375,3.932617 -4.2158198,6.399414 -0.8081055,2.5625 -0.3349609,5.227539 1.2050778,6.791016 0.993164,1.006836 2.501465,1.646484 4.246582,1.801758 1.6875,0.15039 3.404297,-0.136719 4.98584,-0.453125 12.124512,-2.420899 23.350586,-8.117188 32.464844,-16.470704 3.787109,-3.471679 6.248535,-6.607421 7.746094,-9.86914 0.963867,-2.09668 1.20166,-3.788086 0.728027,-5.168945 -0.643066,-1.875 -2.547852,-2.933594 -4.116211,-3.299805 -0.692871,-0.16211 -1.429199,-0.240235 -2.252441,-0.240235 z"
                 inkscape:connector-curvature="0"
                 style="opacity:0.9;fill:#000000" />
              <path
                 id="path4709"
                 d="m 53.828613,53.549805 c -3.685058,0 -7.641113,-0.567383 -11.758789,-1.685547 C 29.449219,48.4375 18.254394,40.731445 10.547363,30.167969 8.9560547,27.987305 7.3823242,25.369141 7.772461,22.480469 c 0.4638672,-3.431641 3.544922,-5.673828 6.392578,-6.373047 0.951172,-0.233399 1.938965,-0.34668 3.020508,-0.34668 2.145996,0 4.296875,0.472656 5.931152,0.884766 13.269532,3.349609 25.414063,10.975586 34.196289,21.471679 1.77002,2.116211 3.494141,4.464844 4.119141,7.302735 0.43457,1.970703 0.255859,4.682617 -1.550781,6.383789 -1.620606,1.526367 -3.975098,1.734375 -5.845703,1.745117 l -0.207032,9.77e-4 z M 17.185547,17.260742 c -0.958985,0 -1.830078,0.09863 -2.663086,0.303711 -2.277344,0.55957 -4.8964844,2.399414 -5.2636719,5.117188 -0.3188477,2.361328 1.0849609,4.662109 2.5004879,6.601562 7.506836,10.290039 18.410645,17.794922 30.703614,21.133789 3.989257,1.083008 7.813476,1.632813 11.365722,1.632813 l 0.198243,-9.77e-4 c 1.595703,-0.0088 3.586425,-0.168945 4.826171,-1.336914 1.34961,-1.271484 1.46045,-3.400391 1.114258,-4.969727 C 59.411621,43.219726 57.810059,41.049805 56.162598,39.080078 47.581543,28.824219 35.714844,21.373047 22.749512,18.100586 21.199707,17.708984 19.166504,17.260742 17.185547,17.260742 Z"
                 inkscape:connector-curvature="0"
                 style="opacity:0.9;fill:#000000" />
            </g>
          </g>
        </g>
        <g
           style="display:inline;opacity:0.9"
           id="g4761"
           transform="matrix(50.762521,0,0,50.762518,-9079.7294,-20807.449)">
          <path
             id="path4763"
             d="m 188.52102,417.80103 0,-0.75 -0.552,0 c -0.0292,-0.10225 -0.0702,-0.20075 -0.123,-0.29475 l 0.39075,-0.391 -0.53025,-0.53025 -0.39075,0.391 c -0.094,-0.0528 -0.1925,-0.0937 -0.29475,-0.123 l 0,-0.552 -0.75,0 0,0.552 c -0.10225,0.0292 -0.20075,0.0702 -0.29475,0.123 l -0.391,-0.391 -0.53025,0.53025 0.391,0.391 c -0.0528,0.094 -0.0937,0.1925 -0.123,0.29475 l -0.552,0 0,0.75 0.552,0 c 0.0292,0.10225 0.0702,0.20075 0.123,0.29475 l -0.39075,0.391 0.53025,0.53025 0.39075,-0.391 c 0.0937,0.0528 0.1925,0.0937 0.29475,0.123 l 0,0.552 0.75,0 0,-0.552 c 0.10225,-0.0292 0.20075,-0.0702 0.29475,-0.123 l 0.391,0.39075 0.53025,-0.53025 -0.391,-0.39075 c 0.0528,-0.0937 0.0937,-0.1925 0.123,-0.29475 l 0.552,0 z m -0.6375,0.68575 -0.17675,0.17675 -0.35575,-0.35575 -0.0853,0.0563 c -0.12225,0.0805 -0.255,0.136 -0.39475,0.1645 l -0.1,0.0203 0,0.50225 -0.25,0 0,-0.50225 -0.1,-0.0203 c -0.13975,-0.0285 -0.2725,-0.0838 -0.3945,-0.1645 l -0.0853,-0.0563 -0.356,0.35575 -0.17675,-0.17675 0.35575,-0.35575 -0.056,-0.0853 c -0.0807,-0.12225 -0.13625,-0.255 -0.16475,-0.39475 l -0.0203,-0.1 -0.50225,0 0,-0.25 0.50225,0 0.0203,-0.1 c 0.0285,-0.13975 0.0838,-0.2725 0.1645,-0.3945 l 0.0563,-0.0853 -0.35575,-0.356 0.17675,-0.17675 0.35575,0.35575 0.0853,-0.0563 c 0.12225,-0.0805 0.255,-0.136 0.39475,-0.1645 l 0.1,-0.0202 0,-0.50225 0.25,0 0,0.50225 0.1,0.0202 c 0.13975,0.0285 0.2725,0.0838 0.3945,0.1645 l 0.0853,0.0563 0.35575,-0.35575 0.17675,0.17675 -0.35575,0.35575 0.0563,0.0853 c 0.0807,0.12225 0.13625,0.255 0.16475,0.39475 l 0.0203,0.1 0.50225,0 0,0.25 -0.50225,0 -0.0203,0.1 c -0.0285,0.13975 -0.0838,0.2725 -0.1645,0.3945 l -0.0563,0.0853 0.35575,0.356 z"
             inkscape:connector-curvature="0" />
          <circle
             style="opacity:0.8;fill:none;fill-opacity:1;stroke:#000000;stroke-width:0.2;stroke-linecap:butt;stroke-linejoin:miter;stroke-miterlimit:1;stroke-dasharray:none;stroke-dashoffset:0;stroke-opacity:1"
             id="circle4765"
             cx="186.64603"
             cy="417.42603"
             r="0.5748747" />
        </g>
      </g>
    </g>
    <path
       style="color:#000000;font-style:normal;font-variant:normal;font-weight:normal;font-stretch:normal;font-size:medium;line-height:normal;font-family:sans-serif;text-indent:0;text-align:start;text-decoration:none;text-decoration-line:none;text-decoration-style:solid;text-decoration-color:#000000;letter-spacing:normal;word-spacing:normal;text-transform:none;direction:ltr;block-progression:tb;writing-mode:lr-tb;baseline-shift:baseline;text-anchor:start;white-space:normal;clip-rule:nonzero;display:inline;overflow:visible;visibility:visible;opacity:0.9;isolation:auto;mix-blend-mode:normal;color-interpolation:sRGB;color-interpolation-filters:linearRGB;solid-color:#000000;solid-opacity:1;fill:url(#linearGradient7292);fill-opacity:1;fill-rule:nonzero;stroke:none;stroke-width:7.93100023;stroke-linecap:butt;stroke-linejoin:miter;stroke-miterlimit:1;stroke-dasharray:none;stroke-dashoffset:0;stroke-opacity:1;color-rendering:auto;image-rendering:auto;shape-rendering:auto;text-rendering:auto;enable-background:accumulate"
       d="m 342.19824,756.92338 -3.39978,3.39978 c -49.29393,-43.62594 -123.81873,-43.57088 -173.04649,0.16945 l 8.05241,8.05241 c 44.83641,-39.41594 112.0369,-39.46763 156.93806,-0.16584 l -3.49532,3.49532 14.95111,0 0,-14.95112 z"
       id="path5783"
       inkscape:connector-curvature="0"
       inkscape:transform-center-x="13.156326"
       inkscape:transform-center-y="-243.27194" />
    <path
       inkscape:transform-center-y="243.27192"
       inkscape:transform-center-x="-13.156339"
       inkscape:connector-curvature="0"
       id="path7306"
       d="m 165.75197,838.57295 3.39978,-3.39976 c 49.2939,43.62594 123.81875,43.57088 173.04649,-0.16946 l -8.05242,-8.05239 c -44.83641,39.41592 -112.03689,39.46762 -156.93807,0.16583 l 3.49533,-3.49532 -14.95111,0 0,14.9511 z"
       style="color:#000000;font-style:normal;font-variant:normal;font-weight:normal;font-stretch:normal;font-size:medium;line-height:normal;font-family:sans-serif;text-indent:0;text-align:start;text-decoration:none;text-decoration-line:none;text-decoration-style:solid;text-decoration-color:#000000;letter-spacing:normal;word-spacing:normal;text-transform:none;direction:ltr;block-progression:tb;writing-mode:lr-tb;baseline-shift:baseline;text-anchor:start;white-space:normal;clip-rule:nonzero;display:inline;overflow:visible;visibility:visible;opacity:0.9;isolation:auto;mix-blend-mode:normal;color-interpolation:sRGB;color-interpolation-filters:linearRGB;solid-color:#000000;solid-opacity:1;fill:url(#linearGradient7308);fill-opacity:1;fill-rule:nonzero;stroke:none;stroke-width:7.93100023;stroke-linecap:butt;stroke-linejoin:miter;stroke-miterlimit:1;stroke-dasharray:none;stroke-dashoffset:0;stroke-opacity:1;color-rendering:auto;image-rendering:auto;shape-rendering:auto;text-rendering:auto;enable-background:accumulate" />
  </g>
</svg>
